<?xml version="1.0" encoding="UTF-8" standalone="no"?>
<!-- Created with Inkscape (http://www.inkscape.org/) -->

<svg
   xmlns:dc="http://purl.org/dc/elements/1.1/"
   xmlns:cc="http://creativecommons.org/ns#"
   xmlns:rdf="http://www.w3.org/1999/02/22-rdf-syntax-ns#"
   xmlns:svg="http://www.w3.org/2000/svg"
   xmlns="http://www.w3.org/2000/svg"
   xmlns:sodipodi="http://sodipodi.sourceforge.net/DTD/sodipodi-0.dtd"
   xmlns:inkscape="http://www.inkscape.org/namespaces/inkscape"
   width="42.333332mm"
   height="42.333332mm"
   viewBox="0 0 150 149.99999"
   id="svg2"
   version="1.1"
   inkscape:version="0.92.2 5c3e80d, 2017-08-06"
   sodipodi:docname="gears.svg">
  <sodipodi:namedview
     id="base"
     pagecolor="#ffffff"
     bordercolor="#666666"
     borderopacity="1.0"
     inkscape:pageopacity="0.0"
     inkscape:pageshadow="2"
     inkscape:zoom="4.0333126"
     inkscape:cx="-21.069188"
     inkscape:cy="45.660713"
     inkscape:document-units="px"
     inkscape:current-layer="layer1"
     showgrid="false"
     inkscape:window-width="2560"
     inkscape:window-height="1311"
     inkscape:window-x="0"
     inkscape:window-y="55"
     inkscape:window-maximized="1"
     fit-margin-top="0"
     fit-margin-left="0"
     fit-margin-right="0"
     fit-margin-bottom="0" />
  <defs
     id="defs4" />
  <metadata
     id="metadata7">
    <rdf:RDF>
      <cc:Work
         rdf:about="">
        <dc:format>image/svg+xml</dc:format>
        <dc:type
           rdf:resource="http://purl.org/dc/dcmitype/StillImage" />
        <dc:title />
      </cc:Work>
    </rdf:RDF>
  </metadata>
  <g
     inkscape:label="Layer 1"
     inkscape:groupmode="layer"
     id="layer1"
     transform="translate(-376.97562,-363.91183)">
    <rect
       style="color:#000000;clip-rule:nonzero;display:inline;overflow:visible;visibility:visible;opacity:1;isolation:auto;mix-blend-mode:normal;color-interpolation:sRGB;color-interpolation-filters:linearRGB;solid-color:#000000;solid-opacity:1;fill:#333333;fill-opacity:1;fill-rule:nonzero;stroke:none;stroke-width:1;stroke-linecap:butt;stroke-linejoin:miter;stroke-miterlimit:4;stroke-dasharray:none;stroke-dashoffset:0;stroke-opacity:1;color-rendering:auto;image-rendering:auto;shape-rendering:auto;text-rendering:auto;enable-background:accumulate"
       id="rect3336"
       width="150"
       height="150"
       x="376.97562"
       y="363.91183" />
    <g
       id="g3361"
       transform="translate(189.66004,413.37495)"
       inkscape:label="Gear10"
       style="fill:#c8c8c8;fill-opacity:1;stroke:#000000;stroke-opacity:1">
      <path
         style="fill:#c8c8c8;fill-opacity:1;stroke:#000000;stroke-width:1;stroke-opacity:1"
         d="m 248.50991,-30.071476 -7.71094,2.507813 -0.16015,10.558593 0.2539,0.685547 4.01954,7.8535163 -9.5586,6.945312 -6.22656,-6.25 -0.57422,-0.453125 -10.0918,-3.1132813 -4.76562,6.5625003 6.07812,8.634766 0.60743,0.404297 7.86914,3.992187 -3.65039,11.2382807 -8.7129,-1.396484 -0.73046,-0.03125 -9.99219,3.416016 0,8.109375 9.99219,3.414062 0.73046,-0.03125 8.7129,-1.394531 3.65039,11.236328 -7.86914,3.992187 -0.60743,0.404297 -6.07812,8.636719 4.76562,6.560547 10.0918,-3.111328 0.57422,-0.453125 6.22656,-6.251953 9.5586,6.945312 -4.01954,7.855469 -0.2539,0.68359 0.16015,10.56055 7.71094,2.50586 6.33594,-8.44922 0.19727,-0.70312 1.36523,-8.718754 11.81445,0 1.36524,8.718754 0.19726,0.70312 6.33399,8.44922 7.71289,-2.50586 0.16015,-10.56055 -0.2539,-0.68359 -4.02149,-7.855469 9.5586,-6.945312 6.22851,6.251953 0.57227,0.453125 10.09375,3.111328 4.76563,-6.560547 -6.07813,-8.636719 -0.60742,-0.404297 -7.86914,-3.992187 3.65039,-11.236328 8.71289,1.394531 0.73047,0.03125 9.99219,-3.414062 0,-8.109375 -9.99219,-3.416016 -0.73047,0.03125 -8.71289,1.396484 -3.65039,-11.2382807 7.86914,-3.992187 0.60742,-0.404297 6.07813,-8.634766 -4.76563,-6.5625003 -10.09375,3.1132813 -0.57227,0.453125 -6.22851,6.25 -9.5586,-6.945312 4.02149,-7.8535163 0.2539,-0.685547 -0.16015,-10.558593 -7.71289,-2.507813 -6.33399,8.449219 -0.19726,0.705078 -1.36524,8.716797 -11.81445,0 -1.36523,-8.716797 -0.19727,-0.705078 -6.33594,-8.449219 z m 13.80469,45.609375 a 10,10 0 0 1 10,10 10,10 0 0 1 -10,10 10,10 0 0 1 -10,-10 10,10 0 0 1 10,-10 z"
         id="path3363"
         inkscape:connector-curvature="0" />
    </g>
  </g>
</svg>
